<svg id="email" xmlns="http://www.w3.org/2000/svg" width="17.913" height="17.912" viewBox="0 0 17.913 17.912">
  <g id="Group_114" data-name="Group 114" transform="translate(0 0)">
    <g id="Group_113" data-name="Group 113">
      <path id="Path_48" data-name="Path 48" d="M17.91,6.852a.282.282,0,0,0-.012-.061.3.3,0,0,0-.017-.051.268.268,0,0,0-.03-.046.282.282,0,0,0-.04-.046s-.007-.01-.012-.014L14.928,4.4V2.093a.9.9,0,0,0-.9-.9H10.8L9.5.192a.885.885,0,0,0-1.089,0L7.117,1.2H3.881a.9.9,0,0,0-.9.9V4.4L.115,6.634c-.005,0-.007.01-.012.014a.28.28,0,0,0-.04.046.266.266,0,0,0-.03.046.3.3,0,0,0-.017.051A.283.283,0,0,0,0,6.851c0,.006,0,.012,0,.018V17.021a.886.886,0,0,0,.175.527s0,.006,0,.008l.01.008a.891.891,0,0,0,.706.352H17.018a.892.892,0,0,0,.708-.353s.006,0,.008-.007,0-.006,0-.008a.886.886,0,0,0,.175-.527V6.87C17.914,6.864,17.911,6.858,17.91,6.852ZM8.778.663a.286.286,0,0,1,.356,0l.689.535H8.091ZM.971,17.32l7.807-6.064a.287.287,0,0,1,.356,0l7.809,6.064Zm16.346-.465L9.5,10.784a.886.886,0,0,0-1.089,0L.6,16.854V7.325l4.893,3.8a.3.3,0,1,0,.366-.472L.885,6.792l2.1-1.632V7.467a.3.3,0,0,0,.6,0V2.093a.3.3,0,0,1,.3-.3H14.033a.3.3,0,0,1,.3.3V7.467a.3.3,0,0,0,.6,0V5.16l2.1,1.632-4.979,3.866a.3.3,0,1,0,.366.472l4.9-3.806v9.529Z" transform="translate(-0.001 -0.004)" fill="#bababa"/>
      <path id="Path_49" data-name="Path 49" d="M160.74,73.014V71.82a3.583,3.583,0,1,0-3.583,3.583.3.3,0,1,0,0-.6,2.986,2.986,0,1,1,2.986-2.986v1.194a.6.6,0,0,1-1.194,0V71.82a.3.3,0,0,0-.6,0,1.194,1.194,0,1,1-1.194-1.194.3.3,0,1,0,0-.6,1.791,1.791,0,1,0,1.207,3.111,1.191,1.191,0,0,0,2.376-.126Z" transform="translate(-148.201 -65.85)" fill="#bababa"/>
    </g>
  </g>
</svg>
