<svg id="menu" xmlns="http://www.w3.org/2000/svg" width="24" height="24" viewBox="0 0 24 24">
  <g id="Artboard">
    <g id="ICONS-SM-Copy">
      <g id="INSTAGRAM-LOGO">
        <path id="Shape" d="M16.5,0h-9A7.5,7.5,0,0,0,0,7.5v9A7.5,7.5,0,0,0,7.5,24h9A7.5,7.5,0,0,0,24,16.5v-9A7.5,7.5,0,0,0,16.5,0Zm5.25,16.5a5.256,5.256,0,0,1-5.25,5.25h-9A5.256,5.256,0,0,1,2.25,16.5v-9A5.256,5.256,0,0,1,7.5,2.25h9A5.256,5.256,0,0,1,21.75,7.5v9Z" fill="#fcfcfc" fill-rule="evenodd"/>
        <path id="Shape-2" data-name="Shape" d="M11.954,4.727a7.227,7.227,0,1,0,7.227,7.227,7.227,7.227,0,0,0-7.227-7.227Zm0,11.744a4.517,4.517,0,1,1,4.517-4.517,4.523,4.523,0,0,1-4.517,4.517Z" transform="translate(0 0)" fill="#fcfcfc" fill-rule="evenodd"/>
        <circle id="Oval" cx="1" cy="1" r="1" transform="translate(17.537 4.343)" fill="#fcfcfc"/>
      </g>
    </g>
  </g>
</svg>
