<svg id="Logo_Black" data-name="Logo Black" xmlns="http://www.w3.org/2000/svg" width="197.579" height="42.818" viewBox="0 0 197.579 42.818">
  <path id="Path_26" data-name="Path 26" d="M179.563,203.5V178.668h13.091v24.947c0,4.158,2.092,6,5.021,6s5.021-1.723,5.021-5.821V178.668h13.031v24.59c0,12.711-7.352,17.819-18.172,17.819C186.8,221.078,179.563,215.91,179.563,203.5Z" transform="translate(-179.563 -178.438)" fill="#030303"/>
  <path id="Path_27" data-name="Path 27" d="M521.186,178.58h12.64l12.04,17.909V178.58h13.241v42.352H546.9L534.25,202.116v18.816H521.186Z" transform="translate(-480.681 -178.36)" fill="#030303"/>
  <path id="Path_28" data-name="Path 28" d="M1079.286,178.4h13.193v15.315l9.443-15.315h14.649l-11.925,18.16,12.228,24.213h-15.133l-6.477-13.438-2.785,3.935v9.5h-13.193Z" transform="translate(-972.61 -178.205)" fill="#030303"/>
  <path id="Path_29" data-name="Path 29" d="M891.448,178.649h-12.88v13.287h6.15V221h13.247V178.649Z" transform="translate(-795.69 -178.421)" fill="#030303"/>
  <circle id="Ellipse_6" data-name="Ellipse 6" cx="5.499" cy="5.499" r="5.499" transform="translate(186.582 31.821)" fill="#030303"/>
  <path id="Path_30" data-name="Path 30" d="M1388.418,176.726a21.34,21.34,0,1,0,21.34,21.34A21.34,21.34,0,0,0,1388.418,176.726Zm0,30.088a8.748,8.748,0,1,1,8.748-8.748A8.748,8.748,0,0,1,1388.418,206.814Z" transform="translate(-1226.28 -176.726)" fill="#030303"/>
</svg>
