<svg id="Group_115" data-name="Group 115" xmlns="http://www.w3.org/2000/svg" width="17.274" height="17.299" viewBox="0 0 17.274 17.299">
  <path id="Path_50" data-name="Path 50" d="M14,37.121a1.7,1.7,0,0,0-1.234-.566,1.759,1.759,0,0,0-1.249.562l-1.154,1.15c-.095-.051-.19-.1-.281-.146-.131-.066-.256-.128-.361-.194a12.54,12.54,0,0,1-3-2.738,7.4,7.4,0,0,1-.986-1.555c.3-.274.577-.559.847-.832.1-.1.2-.208.307-.31a1.675,1.675,0,0,0,0-2.527l-1-1c-.113-.113-.23-.23-.34-.347-.219-.226-.449-.46-.686-.679a1.728,1.728,0,0,0-1.223-.537,1.788,1.788,0,0,0-1.241.537l-.007.007L1.152,29.2a2.671,2.671,0,0,0-.792,1.7,6.4,6.4,0,0,0,.467,2.709A15.72,15.72,0,0,0,3.62,38.268a17.182,17.182,0,0,0,5.721,4.48,8.914,8.914,0,0,0,3.213.949c.077,0,.157.007.23.007a2.751,2.751,0,0,0,2.107-.905c0-.007.011-.011.015-.018a8.3,8.3,0,0,1,.639-.661c.157-.15.318-.307.475-.471a1.821,1.821,0,0,0,.551-1.263,1.755,1.755,0,0,0-.562-1.252Zm1.307,3.845s0,0,0,0c-.142.153-.288.292-.445.445a9.6,9.6,0,0,0-.7.73,1.76,1.76,0,0,1-1.373.581c-.055,0-.113,0-.168,0a7.919,7.919,0,0,1-2.848-.854,16.218,16.218,0,0,1-5.389-4.221,14.822,14.822,0,0,1-2.629-4.378,5.213,5.213,0,0,1-.409-2.286,1.676,1.676,0,0,1,.5-1.084l1.245-1.245a.83.83,0,0,1,.555-.259.781.781,0,0,1,.533.256l.011.011c.223.208.434.424.657.654.113.117.23.234.347.354l1,1a.7.7,0,0,1,0,1.132c-.106.106-.208.212-.314.314-.307.314-.6.606-.916.891-.007.007-.015.011-.018.018a.745.745,0,0,0-.19.829l.011.033A8,8,0,0,0,5.946,35.8l0,0a13.4,13.4,0,0,0,3.242,2.95A4.985,4.985,0,0,0,9.641,39c.131.066.256.128.361.194.015.007.029.018.044.026a.792.792,0,0,0,.361.091.781.781,0,0,0,.555-.252l1.249-1.249a.826.826,0,0,1,.551-.274.744.744,0,0,1,.526.267l.007.007,2.012,2.012A.722.722,0,0,1,15.311,40.966Z" transform="translate(-0.344 -26.405)" fill="#bababa"/>
  <path id="Path_51" data-name="Path 51" d="M245.349,86.9a4.7,4.7,0,0,1,3.826,3.826.49.49,0,0,0,.486.409.651.651,0,0,0,.084-.007.493.493,0,0,0,.405-.57,5.682,5.682,0,0,0-4.63-4.629.5.5,0,0,0-.57.4A.488.488,0,0,0,245.349,86.9Z" transform="translate(-236.013 -82.788)" fill="#bababa"/>
  <path id="Path_52" data-name="Path 52" d="M256.971,7.631A9.356,9.356,0,0,0,249.348.008a.492.492,0,1,0-.161.971A8.357,8.357,0,0,1,256,7.792a.49.49,0,0,0,.486.409.652.652,0,0,0,.084-.007A.484.484,0,0,0,256.971,7.631Z" transform="translate(-239.705 0)" fill="#bababa"/>
</svg>
