<svg xmlns="http://www.w3.org/2000/svg" width="18" height="22.356" viewBox="0 0 18 22.356">
  <g id="_1250658" data-name="1250658" transform="translate(3.242 -31)">
    <path id="Path_149" data-name="Path 149" d="M12.127,2.746a8.76,8.76,0,0,0-12.739,0l0,0A9.485,9.485,0,0,0-3.242,9.356,9.487,9.487,0,0,0-.614,15.964l5.969,6.221a.559.559,0,0,0,.79.016l.016-.016,5.969-6.221a9.487,9.487,0,0,0,2.628-6.607A9.487,9.487,0,0,0,12.13,2.749Zm-.8,12.444-5.566,5.8L.192,15.19a8.508,8.508,0,0,1,0-11.665l0,0a7.642,7.642,0,0,1,11.13,0l0,0A8.508,8.508,0,0,1,11.323,15.19Zm0,0" transform="translate(0 31)" fill="#9b9e9f"/>
    <path id="Path_150" data-name="Path 150" d="M90,76.1a4.663,4.663,0,1,0,4.68,4.663A4.672,4.672,0,0,0,90,76.1Zm0,8.289a3.627,3.627,0,1,1,3.64-3.626A3.633,3.633,0,0,1,90,84.387Zm0,0" transform="translate(-84.243 -40.383)" fill="#9b9e9f"/>
  </g>
</svg>
