<svg xmlns="http://www.w3.org/2000/svg" width="25.776" height="22.202" viewBox="0 0 25.776 22.202">
  <g id="Artboard" transform="translate(1.026 0.75)">
    <g id="ICONS-SM-Copy" transform="translate(0 0)">
      <path id="Vimeo" d="M57.492,1.039q-5-.163-6.777,5.59a4.67,4.67,0,0,1,1.778-.376q1.825,0,1.611,2.042a9.267,9.267,0,0,1-1.611,3.6q-1.51,2.368-2.258,2.366-.973,0-1.778-3.655-.271-1.076-.967-5.485-.651-4.086-3.444-3.817-1.183.108-3.546,2.151Q38.775,5.017,37,6.576l1.129,1.45A7.464,7.464,0,0,1,40.011,6.9q1.239,0,2.315,3.868.965,3.552,1.939,7.1c.963,2.58,2.15,3.871,3.546,3.871q3.388,0,8.284-6.343,4.732-6.073,4.893-9.571.217-4.674-3.5-4.783Z" transform="translate(-37 -1.034)" fill="none" stroke="#fcfcfc" stroke-width="1.5" fill-rule="evenodd"/>
    </g>
  </g>
</svg>
